<svg width="254" height="46" viewBox="0 0 254 46" fill="none" xmlns="http://www.w3.org/2000/svg">
<path d="M0.625 44.8182L6.65909 8.81818H11.6364L10.9375 13.0625H11.3636C11.75 12.517 12.2727 11.8864 12.9318 11.1705C13.6023 10.4545 14.483 9.82954 15.5739 9.29545C16.6648 8.75 18.0227 8.47727 19.6477 8.47727C21.7614 8.47727 23.5511 9.01136 25.017 10.0795C26.483 11.1477 27.5284 12.6875 28.1534 14.6989C28.7784 16.7102 28.858 19.1307 28.392 21.9602C27.9261 24.7898 27.0511 27.2159 25.767 29.2386C24.483 31.25 22.9261 32.8011 21.0966 33.892C19.2784 34.9716 17.3068 35.5114 15.1818 35.5114C13.5909 35.5114 12.3352 35.2443 11.4148 34.7102C10.5057 34.1761 9.82955 33.5511 9.38636 32.8352C8.94318 32.1193 8.60795 31.483 8.38068 30.9261H8.07386L5.75568 44.8182H0.625ZM9.47159 21.9091C9.17614 23.75 9.17614 25.3636 9.47159 26.75C9.76705 28.1364 10.358 29.2216 11.2443 30.0057C12.142 30.7784 13.3239 31.1648 14.7898 31.1648C16.3125 31.1648 17.6477 30.7614 18.7955 29.9545C19.9432 29.1364 20.892 28.0284 21.642 26.6307C22.4034 25.233 22.9318 23.6591 23.2273 21.9091C23.5114 20.1818 23.5057 18.6307 23.2102 17.2557C22.9261 15.8807 22.3409 14.7955 21.4545 14C20.5682 13.2045 19.358 12.8068 17.8239 12.8068C16.3352 12.8068 15.017 13.1875 13.8693 13.9489C12.733 14.7102 11.7898 15.7727 11.0398 17.1364C10.2898 18.5 9.76705 20.0909 9.47159 21.9091ZM38.7706 19.4545L36.2138 35H31.1172L36.9127 0.0909081H41.9411L39.7934 13.0795H40.1172C40.9468 11.6591 42.0604 10.5398 43.4581 9.72159C44.8672 8.89205 46.5945 8.47727 48.64 8.47727C50.4354 8.47727 51.9411 8.84659 53.157 9.58523C54.3843 10.3239 55.2479 11.4261 55.7479 12.892C56.2593 14.3466 56.3388 16.1648 55.9866 18.3466L53.1911 35H48.0945L50.7536 18.9602C51.0718 17.0398 50.8218 15.5511 50.0036 14.4943C49.1854 13.4261 47.907 12.892 46.1684 12.892C44.9525 12.892 43.8275 13.1477 42.7934 13.6591C41.7706 14.1705 40.907 14.9205 40.2025 15.9091C39.4979 16.8864 39.0206 18.0682 38.7706 19.4545ZM57.5399 44.8182L63.574 8.81818H68.5512L67.8524 13.0625H68.2785C68.6649 12.517 69.1876 11.8864 69.8467 11.1705C70.5171 10.4545 71.3978 9.82954 72.4887 9.29545C73.5796 8.75 74.9376 8.47727 76.5626 8.47727C78.6762 8.47727 80.466 9.01136 81.9319 10.0795C83.3978 11.1477 84.4433 12.6875 85.0683 14.6989C85.6933 16.7102 85.7728 19.1307 85.3069 21.9602C84.841 24.7898 83.966 27.2159 82.6819 29.2386C81.3978 31.25 79.841 32.8011 78.0115 33.892C76.1933 34.9716 74.2217 35.5114 72.0967 35.5114C70.5058 35.5114 69.2501 35.2443 68.3296 34.7102C67.4206 34.1761 66.7444 33.5511 66.3012 32.8352C65.8581 32.1193 65.5228 31.483 65.2956 30.9261H64.9887L62.6706 44.8182H57.5399ZM66.3865 21.9091C66.091 23.75 66.091 25.3636 66.3865 26.75C66.6819 28.1364 67.2728 29.2216 68.1592 30.0057C69.0569 30.7784 70.2387 31.1648 71.7046 31.1648C73.2274 31.1648 74.5626 30.7614 75.7103 29.9545C76.8581 29.1364 77.8069 28.0284 78.5569 26.6307C79.3183 25.233 79.8467 23.6591 80.1421 21.9091C80.4262 20.1818 80.4206 18.6307 80.1251 17.2557C79.841 15.8807 79.2558 14.7955 78.3694 14C77.4831 13.2045 76.2728 12.8068 74.7387 12.8068C73.2501 12.8068 71.9319 13.1875 70.7842 13.9489C69.6478 14.7102 68.7046 15.7727 67.9546 17.1364C67.2046 18.5 66.6819 20.0909 66.3865 21.9091Z" fill="#475DF6"/>
<path d="M94.2196 0.0909081H100.612L107.259 27.2273H107.668L123.248 0.0909081H129.64L123.845 35H118.833L123.043 9.73864H122.72L108.231 34.9489H104.055L97.9867 9.72159H97.6628L93.4355 35H88.4242L94.2196 0.0909081ZM131.897 44.8182C131.124 44.8182 130.436 44.7557 129.834 44.6307C129.232 44.517 128.783 44.392 128.487 44.2557L130.431 40.0795C131.328 40.3295 132.129 40.4261 132.834 40.3693C133.55 40.3125 134.22 40.017 134.845 39.483C135.47 38.9489 136.107 38.108 136.754 36.9602L137.709 35.2386L132.578 8.81818H137.828L141.067 29.1875H141.34L151.362 8.81818H157.039L141.34 38.4602C140.601 39.8693 139.76 41.0398 138.817 41.9716C137.885 42.9148 136.84 43.625 135.681 44.1023C134.533 44.5795 133.272 44.8182 131.897 44.8182ZM157.058 35L162.853 0.0909081H175.637C178.115 0.0909081 180.098 0.499999 181.586 1.31818C183.086 2.125 184.12 3.22159 184.688 4.60795C185.257 5.98295 185.393 7.53409 185.098 9.26136C184.859 10.7159 184.387 11.9375 183.683 12.9261C182.99 13.9148 182.149 14.7102 181.16 15.3125C180.171 15.9148 179.132 16.3523 178.041 16.625L177.973 16.9659C179.109 17.0227 180.171 17.3977 181.16 18.0909C182.16 18.7727 182.921 19.7443 183.444 21.0057C183.967 22.267 184.086 23.8011 183.802 25.608C183.495 27.392 182.802 28.9943 181.723 30.4148C180.654 31.8239 179.183 32.9432 177.308 33.7727C175.433 34.5909 173.143 35 170.438 35H157.058ZM163.075 30.483H170.677C173.2 30.483 175.086 29.9943 176.336 29.017C177.598 28.0398 178.359 26.8182 178.62 25.3523C178.791 24.25 178.671 23.2386 178.262 22.3182C177.865 21.3977 177.194 20.6648 176.251 20.1193C175.319 19.5739 174.149 19.3011 172.74 19.3011H164.95L163.075 30.483ZM165.649 15.1932H172.688C173.87 15.1932 174.973 14.9659 175.995 14.5114C177.029 14.0568 177.887 13.4148 178.569 12.5852C179.262 11.7557 179.694 10.7841 179.865 9.67045C180.115 8.21591 179.813 7.00568 178.961 6.03977C178.12 5.0625 176.66 4.57386 174.581 4.57386H167.387L165.649 15.1932ZM198.131 0.0909081L192.336 35H187.239L193.034 0.0909081H198.131ZM209.524 35.5284C207.035 35.5284 204.956 34.9602 203.285 33.8239C201.615 32.6761 200.439 31.0739 199.757 29.017C199.086 26.9489 198.973 24.5455 199.416 21.8068C199.848 19.125 200.717 16.7841 202.024 14.7841C203.342 12.7841 204.99 11.233 206.967 10.1307C208.956 9.02841 211.166 8.47727 213.598 8.47727C216.086 8.47727 218.16 9.05114 219.819 10.1989C221.49 11.3466 222.666 12.9545 223.348 15.0227C224.029 17.0909 224.149 19.5 223.706 22.25C223.274 24.9091 222.393 27.2386 221.064 29.2386C219.745 31.2273 218.098 32.7727 216.12 33.875C214.143 34.9773 211.944 35.5284 209.524 35.5284ZM209.814 31.25C211.45 31.25 212.876 30.8182 214.092 29.9545C215.319 29.0909 216.319 27.9432 217.092 26.5114C217.865 25.0795 218.393 23.5114 218.677 21.8068C218.939 20.1591 218.933 18.6534 218.66 17.2898C218.399 15.9148 217.831 14.8125 216.956 13.983C216.081 13.1534 214.865 12.7386 213.308 12.7386C211.672 12.7386 210.234 13.1761 208.995 14.0511C207.768 14.9148 206.768 16.0682 205.995 17.5114C205.234 18.9545 204.717 20.5284 204.444 22.233C204.183 23.8693 204.183 25.375 204.444 26.75C204.706 28.1136 205.274 29.2045 206.149 30.0227C207.024 30.8409 208.245 31.25 209.814 31.25ZM235.823 45.3636C233.732 45.3636 231.982 45.0909 230.573 44.5455C229.175 44 228.073 43.2784 227.266 42.3807C226.471 41.483 225.919 40.5 225.613 39.4318L230.317 37.625C230.544 38.125 230.863 38.6534 231.272 39.2102C231.681 39.7784 232.289 40.2614 233.096 40.6591C233.914 41.0568 235.033 41.2557 236.454 41.2557C238.385 41.2557 240.073 40.7841 241.516 39.8409C242.959 38.9091 243.851 37.4205 244.192 35.375L244.993 30.2273H244.669C244.283 30.7841 243.749 31.4034 243.067 32.0852C242.385 32.767 241.505 33.358 240.425 33.858C239.346 34.358 238.005 34.608 236.402 34.608C234.334 34.608 232.55 34.125 231.05 33.1591C229.561 32.1818 228.493 30.7443 227.846 28.8466C227.198 26.9375 227.107 24.5909 227.573 21.8068C228.027 19.0227 228.891 16.6364 230.164 14.6477C231.448 12.6591 233.005 11.1364 234.834 10.0795C236.675 9.01136 238.647 8.47727 240.749 8.47727C242.374 8.47727 243.641 8.75 244.55 9.29545C245.471 9.82954 246.152 10.4545 246.596 11.1705C247.039 11.8864 247.363 12.517 247.567 13.0625H247.942L248.641 8.81818H253.635L249.204 35.5795C248.84 37.8295 248.016 39.6761 246.732 41.1193C245.459 42.5625 243.874 43.6307 241.976 44.3239C240.09 45.017 238.039 45.3636 235.823 45.3636ZM238.141 30.3807C239.596 30.3807 240.891 30.0398 242.027 29.358C243.175 28.6648 244.13 27.6761 244.891 26.392C245.652 25.0966 246.181 23.5455 246.476 21.7386C246.772 19.9773 246.755 18.4261 246.425 17.0852C246.107 15.7443 245.488 14.6989 244.567 13.9489C243.658 13.1875 242.471 12.8068 241.005 12.8068C239.459 12.8068 238.118 13.2045 236.982 14C235.846 14.7841 234.919 15.8523 234.204 17.2045C233.499 18.5568 233.005 20.0682 232.721 21.7386C232.448 23.4545 232.454 24.9602 232.738 26.2557C233.033 27.5511 233.624 28.5625 234.51 29.2898C235.397 30.017 236.607 30.3807 238.141 30.3807Z" fill="#AA6FF7"/>
</svg>
